<?xml version="1.0" encoding="utf-8"?>
<!-- Generator: Adobe Illustrator 16.0.4, SVG Export Plug-In . SVG Version: 6.00 Build 0)  -->
<!DOCTYPE svg PUBLIC "-//W3C//DTD SVG 1.1//EN" "http://www.w3.org/Graphics/SVG/1.1/DTD/svg11.dtd">
<svg version="1.1"
	 id="svg2816" xmlns:svg="http://www.w3.org/2000/svg" xmlns:cc="http://creativecommons.org/ns#" xmlns:dc="http://purl.org/dc/elements/1.1/" xmlns:sodipodi="http://sodipodi.sourceforge.net/DTD/sodipodi-0.dtd" xmlns:inkscape="http://www.inkscape.org/namespaces/inkscape" xmlns:rdf="http://www.w3.org/1999/02/22-rdf-syntax-ns#" sodipodi:docname="Australia-climate-map_MJC01.png" inkscape:version="0.47 r22583"
	 xmlns="http://www.w3.org/2000/svg" xmlns:xlink="http://www.w3.org/1999/xlink" x="0px" y="0px" width="1000px" height="905px"
	 viewBox="0 0 1000 905" enable-background="new 0 0 1000 905" xml:space="preserve">
<defs>
	
	
		<inkscape:perspective  sodipodi:type="inkscape:persp3d" inkscape:vp_y="0 : 1000 : 0" inkscape:vp_x="0 : 0.5 : 1" inkscape:vp_z="1 : 0.5 : 1" id="perspective2824" inkscape:persp3d-origin="0.5 : 0.33333333 : 1">
		</inkscape:perspective>
</defs>
<sodipodi:namedview  pagecolor="#ffffff" showgrid="false" borderopacity="1" inkscape:cy="489.60966" inkscape:zoom="0.56880292" bordercolor="#666666" objecttolerance="10" inkscape:cx="363.56412" guidetolerance="10" gridtolerance="10" id="namedview2818" inkscape:window-y="-4" inkscape:window-width="1024" inkscape:pageshadow="2" inkscape:current-layer="svg2816" inkscape:window-x="-4" inkscape:window-maximized="1" inkscape:window-height="712" inkscape:pageopacity="0">
	</sodipodi:namedview>
<path id="path2830" fill="#008080" d="M331.225,136.111l3.385-1.604l3.207-1.425l3.029-0.891l3.028-0.534h4.276l3.563,1.069
	l4.276,2.495l4.454,4.098l3.563,4.276l2.494,4.811l2.139,4.454l3.92,5.167l4.098,2.138l6.949,1.604l8.73-0.534l8.018-0.535h4.276
	l2.494-0.891l0.891-0.713l0.356-4.098l-0.534-3.029l-1.069-2.138c0,0-0.534-1.069-1.247-1.069s-2.851-0.535-2.851-0.535
	l-1.782-0.712l-0.713-2.138l0.713-6.058l1.426-3.92l2.494-4.632l3.742-4.632l2.494-3.207l0.713-1.96l1.604-0.891l3.741-0.356
	l2.494,0.178h1.604l0.892-1.247l-0.892-2.495l-1.604-3.563l-0.178-4.098l0.713-3.742l1.604-3.563l3.563-3.563l5.345-3.207
	l7.483-1.782l6.236-0.891l7.305-0.713l5.167-0.534l7.127-0.713l6.236-1.069l4.454-2.673l2.851-3.742l1.069-3.563l-0.356-4.454
	l-1.247-2.494l-2.138-2.673l-2.495-2.138l-1.96-0.712l-3.028,0.178l-2.139-0.178l-1.247-1.069l0.179-2.316l1.781-2.138l1.96-1.604
	l2.494-0.535l2.673,0.535l4.989,2.672l5.701,4.455l3.563,1.96l2.316,2.494l1.069,1.069h1.425l0.892-2.316l-0.179-3.029l-0.356-2.494
	l1.247-0.535l1.426,1.069l1.425,2.851l1.248,2.316l0.356,1.425l1.604,1.069h3.385l2.673,1.069l5.167,2.316l4.098,2.138l4.099,0.535
	l17.282,0.178l1.247,0.178l0.892,1.96l1.068,2.851l2.316,2.138l3.029,1.247l4.454,0.178l5.523,0.178l3.029,0.356l2.494,0.356
	l1.247-1.069l0.356-1.247l2.316-0.713l2.494,0.178l1.96,0.178l0.534,1.069l0.535,2.851l0.712,2.316l2.139,0.891l1.96,0.356
	l1.96-0.178l1.425-0.535l1.069-2.138l0.713-2.138l1.425-1.069l2.673-1.069l2.673-0.178l2.494,0.712l2.139,1.069l1.247,1.604
	l0.178,3.029l-0.713,5.345l-0.534,5.88l-1.069,5.702v1.604l-0.713,1.069l-0.891,0.891l-3.741,0.356l-7.84-0.356h-4.633l-2.138,0.356
	l-1.069,1.425l-1.781,8.909l-1.782,8.731l-3.207,6.236l-5.345,7.127l-4.455,4.632l-2.851,2.316l-1.425,1.247l0.356,1.247
	l4.098-0.712l5.167,0.712l6.414,1.782l7.84,3.385l16.035,9.8l8.374,5.702l6.059,3.742l7.839,3.385l7.306,2.672l6.058,3.207
	l4.098,3.386l5.346,4.989l5.701,4.276l3.742,2.851l3.741,1.782l1.96,1.069l0.713,3.029l2.851,5.702l2.316,2.851l4.633,3.029
	l4.988,1.247h10.513l8.374-0.178l4.454-0.178l1.069-0.535l1.068-3.563l1.248-6.592l1.96-7.839l3.741-8.375l3.563-8.552l2.494-7.661
	l1.069-7.84l0.713-10.512l0.178-11.938l3.386-23.697l0.891-7.305l0.356-5.523v-3.563l1.069-1.781l0.891-0.713l2.316-0.356
	l1.604-0.713l0.356-1.959l0.891-9.443l1.425-8.552l2.852-7.483l2.316-5.88l2.851-5.879l1.247-3.385l1.068-2.495l0.713-1.425
	l1.96-1.069l3.92,0.179l3.029,1.959l2.673,3.742l2.138,5.702l0.891,5.702l0.356,4.098v4.455l0.356,1.604l0.891,0.535l3.207-0.356
	l2.851-0.178l1.069,0.178l1.426,0.178l0.356,1.604l-0.892,2.316l-0.713,2.138v5.167l0.356,3.742l1.96,5.345l2.673,6.415l3.207,7.483
	l1.96,5.88l1.247,6.236l0.356,6.949v5.879l0.178,3.029l0.535,1.96l1.96,0.535h4.276l3.563-0.891c0,0,2.494-0.356,3.207-0.356
	c0.712,0,4.275-0.178,4.275-0.178l3.386,0.891l2.673,2.138l2.851,3.92l3.207,5.702l3.386,5.523l1.425,3.207l0.891,4.989l0.179,7.305
	l0.891,9.621l0.713,5.167l0.534,3.742l2.139,4.989l2.315,2.316l1.96,2.316l3.742,1.247l1.425,1.782l1.248,6.058l0.712,7.661
	l0.179,14.432l0.534,8.552l1.782,8.196l3.741,6.236l4.811,6.236l6.058,5.346l4.099,2.494l3.385,1.069h2.673l1.069,0.178l0.891,1.604
	l0.891,4.989l1.604,1.959l3.563,2.138l5.88,3.385l4.454,2.851l3.92,4.276l3.742,5.345l3.028,7.84l4.812,10.334l4.811,9.087
	l3.385,7.839l3.563,8.909l1.96,8.552l-0.356,2.673l0.535,1.425l1.068-0.535l0.356-3.029l0.713-2.495l1.426-0.534l2.494,0.712
	l1.247,1.426l1.604,4.454l1.604,4.098l1.247,3.207l0.713,1.782l1.782,0.356l1.068-3.207l-0.534-5.702l0.356-4.276l0.534-1.604
	l2.316-0.535h1.96l1.069,1.069l0.534,3.742l0.179,12.116l0.712,7.483l1.247,7.661l2.139,6.771l2.673,4.276l3.919,4.276l3.207,4.098
	l4.455,5.88l6.236,10.156l5.345,8.195l4.098,4.989l4.276,3.92l2.139,1.068l2.315,0.179c0,0,1.604-0.179,1.604-1.069
	s0.179-2.673,0.179-2.673s0.178-2.851,0.891-3.207s1.782-1.781,1.782-1.781l3.028-1.069h3.386l1.781,1.069l0.535,1.247l-1.069,2.851
	l-1.247,3.563l-0.535,3.563l-1.781,4.811l-3.386,2.316l-2.315,0.179l-1.604,0.178c0,0-1.247-0.178-1.425,0.713
	c-0.179,0.891-1.247,4.276-1.247,4.276l0.713,6.948l0.712,15.145l-0.356,14.789l0.892,11.759l0.713,5.88l-0.713,10.513l-1.247,9.621
	l-3.029,9.621l-3.741,11.225l-3.92,8.196l-2.673,5.88l-1.604,6.236l-1.604,12.115l-1.069,9.621l-1.425,7.127l-3.208,6.949
	l-7.305,6.236l-8.018,5.523l-5.346,3.92l-5.167,4.811l-3.028,4.098l-2.495,4.633l-2.494,6.235l-2.316,7.127l-3.92,8.019
	l-6.236,8.374l-3.385,4.632l-3.563,4.989l-2.851,6.949l-5.523,6.948l-6.059,5.346l-4.275,4.632l-2.139,3.563l-0.178,6.236
	l0.178,6.593l-1.425,8.195l-1.96,6.771l-2.139,4.276l-4.454,4.811l-7.127,2.316l-10.334,0.179l-13.541,0.534l-9.443,1.604
	l-7.305,2.138l-7.84,4.455l-3.92,2.315l-2.851,0.356l-2.494,0.713l-1.248,2.139l-0.534,4.988l-0.178,1.782l-1.426,0.891h-3.386
	l-6.058-2.139l-5.523-1.068c0,0-1.604-0.713-1.604-1.426s0-3.92,0-3.92l-1.604-4.454l-2.316-2.316l-1.781-0.891l-1.069,1.604
	l0.178,4.633l0.179,3.92l-0.713,1.068l-1.96-0.534l-3.207-2.494l-3.385-2.673l-2.139-2.316l0.535-0.713h2.672l0.892-1.96l0.355-3.92
	l-1.068-2.851l-3.029-4.633l-1.069-0.534l-1.959,1.782l-0.179,6.058l0.179,4.811l-1.96,3.741l-3.563,2.495l-1.96,1.604h-12.473
	l-9.443-0.535l-2.672-1.604c0,0-3.029-3.919-3.742-4.454c-0.713-0.534-3.563-1.069-4.276-1.604
	c-0.712-0.534-3.385-0.356-4.275-0.713c-0.892-0.356-6.949-0.356-6.949-0.356l-3.385-0.178l-6.949-2.851l-5.523-3.207l-5.345-2.139
	l-5.523-0.534c0,0-4.989,0.356-5.88-0.179c-0.891-0.534-5.346-2.315-5.346-2.315l-5.701-6.593l-1.604-4.988l0.356-7.662l0.178-9.621
	l0.356-9.443l-2.138-6.592c0,0-2.851-3.029-3.563-3.564c-0.713-0.534-4.099-2.138-4.099-2.138l-4.632-1.247l-2.673-2.138
	l-0.178-1.604v-2.673l0.355-2.139l-0.712-0.712l-1.604,0.712l-5.523,3.386l-3.029,1.782c0,0-2.138,1.068-3.207,1.068
	s-3.92,0.179-4.633,0.179s-3.563-0.356-3.563-0.356l-0.713-1.247l-0.178-3.563l0.178-4.099l0.356-1.96l2.673-1.781l2.316-2.673
	l1.069-3.741l-0.356-5.702l-0.535-5.345l-0.178-4.989l-0.534-3.028l-1.248-1.426l-2.494-0.713l-2.316,0.891l-1.247,0.535
	l-0.891,2.138l0.356,5.167l-0.713,4.455l-0.713,3.919l-1.604,2.673l-1.96,2.494l-3.385,1.782l-3.208,0.534l-6.592,0.356
	l-3.386-0.178l-0.891-1.426l0.534-2.494l3.029-2.851l3.92-3.92l4.454-3.563l4.811-5.167l2.851-3.92l2.673-5.702l1.96-7.482
	l0.535-6.415l-0.356-6.948l0.534-5.88l-0.356-4.276l-0.356-3.028l-1.425-0.535l-1.247,2.316l-3.207,6.058l-4.633,6.415
	l-8.909,10.689l-3.741,4.633l-6.414,5.88l-4.276,3.386l-2.494,1.781l-1.782,2.316l-1.781,2.494l-0.535,3.029l0.356,4.098v3.207
	l-1.425,1.247l-3.92,0.179l-4.276-3.029l-4.454-4.988l-3.563-8.019l-2.316-9.265l-1.96-7.84l-2.851-5.701l-5.523-5.701l-4.099-1.604
	l-4.275-0.178l-1.782-1.069l-1.069-2.494l1.248-2.851c0,0,1.068-0.713,2.138-1.604c1.069-0.892,2.673-1.247,2.673-1.247l1.425-0.713
	l0.713-1.782l0.179-2.672l-1.248-1.069l-3.385-0.713l-2.494,0.178l-2.316-0.534c0,0-1.069-1.247-1.248-1.96
	c-0.178-0.713,0-4.098,0-4.098l-0.355-1.96l-3.563-0.713l-6.236-0.178l-6.058-2.139l-6.771-0.891l-9.622,0.356h-5.88l-3.385-1.069
	l-2.139-1.96l-0.712-2.316l0.178-3.385c0,0,0.713-1.426,0-2.138c-0.713-0.713-1.96-2.139-1.96-2.139l-5.167-2.316l-6.058-1.425
	l-5.346,0.178l-6.592,0.356l-4.276,1.069l-9.265,2.494l-14.789,5.88l-8.374,4.098l-8.552,3.92l-8.73,2.673l-6.771,1.068h-9.443
	l-4.989,0.356l-3.029,1.604l-3.028,3.386c0,0-1.247,2.316-2.139,2.316c-0.891,0-8.73,1.96-8.73,1.96l-12.115,1.96l-9.8,3.563
	l-10.69,4.276l-8.908,5.166l-6.236,3.742l-3.386,4.276l-2.494,4.988l-2.494,4.633l-1.248,2.673l-1.069,1.604l-4.633,1.604
	l-8.908,2.316c0,0-9.622,0.713-11.225,0.891s-12.294,0.178-12.294,0.178l-7.84-0.712l-9.265,0.534l-6.949,0.891l-9.265,3.563
	l-12.65,5.702l-6.771,5.701l-4.633,3.385l-2.851,2.852l-3.207,4.811l-3.92,5.167l-3.742,2.673l-3.385,1.425l-6.771,0.179
	l-18.352,0.178l-6.236-0.178l-8.018-1.782l-5.523-3.92l-6.058-4.632l-3.029-1.96l-6.949-0.535l-5.88-3.028l-2.672-2.852
	l-0.713-2.138l0.178-6.058l0.178-3.029c0,0-0.535-1.425,0.178-2.138c0.712-0.713,4.098-2.495,4.098-2.495s1.96-0.355,2.673-0.891
	c0.713-0.534,3.207-1.96,3.207-1.96l1.96-2.494v-6.948l-0.178-4.633l-1.247-2.673l-1.248-3.029l0.178-5.345l0.178-9.265l-0.356-7.84
	v-1.604l-1.247-2.673l-5.345-6.058l-4.811-4.633l-3.92-3.563l-3.029-3.207l-1.069-2.494l-1.247-3.742c0,0-0.356-4.276-0.891-5.167
	c-0.535-0.891-2.138-5.167-2.138-5.167s-2.138-3.028-2.851-3.741c-0.713-0.713-4.633-5.167-4.633-5.167l-3.029-3.207l-1.247-1.96
	c0,0-1.069-2.316-0.891-3.029s0.535-4.988,0.535-4.988l-0.535-3.742l-1.604-1.604l-3.92-1.781l-4.276-2.852l-2.673-2.315
	l-2.494-2.852l-1.604-3.563l-0.534-4.811l-0.178-4.098l0.712-2.673l-0.534-1.247l-3.207-0.178c0,0-2.138-0.535-3.029-0.892
	c-0.891-0.356-2.316-1.247-2.316-1.247l-1.96-3.028v-3.92v-2.852l-0.891-2.315l-1.782-2.139l-5.702-4.098l-6.592-6.949l-3.742-4.454
	l-2.138-2.316l-0.713-1.96l-0.178-2.138l1.604-1.604l3.029-0.179l3.385,1.426l3.208,4.276l4.811,4.454l4.098,3.029l3.029,0.891
	l2.495-0.356l0.891-1.604l0.178-3.92l-0.178-5.701c0,0-0.178-2.494-0.535-3.207c-0.356-0.713,0-0.713-1.782-1.782
	s-3.563-1.425-3.563-1.425l-2.672,0.178l-1.604-1.247l0.356-12.294l-0.178-1.069l-1.96-1.425l-2.495-0.356l-4.276-2.851
	l-3.563-5.523l-2.495-5.88l-0.891-3.207l1.425-3.386l2.316-4.633l0.534-4.632l0.535-9.266l-0.178-18.352v-8.196l0.535-5.88
	l0.356-2.672l0.534-1.782l0.891-0.178l1.604,0.712l1.425,3.742l1.247,4.633l1.604,2.494l1.248,0.178l1.604-2.316l0.891-4.276
	l2.316-6.236l3.742-7.483l9.621-9.086l7.483-8.909l4.633-4.455l6.236-4.811l7.305-3.92l6.949-1.782h8.196l6.236-1.425
	c0,0,4.632-2.495,5.345-2.851c0.712-0.356,4.098-3.742,4.098-3.742l4.811-3.207l5.523-1.604l4.989-2.851l4.454-4.276l2.138-3.208
	l3.92-4.098l5.167-2.851l4.276-1.069l5.702-0.178l7.305-0.535l9.087-1.959l7.305-1.96l7.126-4.276l7.662-5.88l8.018-9.621
	l4.454-5.702l3.563-7.839l1.782-6.949l0.535-8.908l0.178-9.622l0.891-7.305l3.029-7.305l3.563-4.989l3.029-3.385l2.138-2.138
	l1.782-0.178l1.782,1.604l4.098,5.523l2.851,2.673l3.029,2.672l1.96,1.426c0,0,0.712,0.891,1.247,0
	c0.535-0.891,1.069-1.782,1.069-1.782l0.356-6.771l-0.891-11.225l0.178-3.742l1.604-1.782l4.632-0.356l6.949,0.356h3.92l1.604-0.891
	l0.713-4.098l0.178-5.88l-0.356-2.672l-1.96-0.713h-2.138l-1.782-0.713c0,0-0.356-1.425,0.178-2.316
	c0.535-0.891,3.385-3.563,3.385-3.563l3.029-3.385l1.96-3.563l0.891-2.138c0,0,0.356-0.713,1.069-1.425
	c0.713-0.713,3.029-0.891,3.029-0.891l6.949,0.535h3.208l1.781-1.069l0.178-5.523l-0.178-3.563c0,0-0.178-1.604,0.535-2.138
	c0.713-0.535,1.782-1.604,2.495-1.604c0.712,0,3.563,0.356,3.563,0.356l3.92,0.534l1.425-1.069v-3.029l0.179-3.742l3.207-2.851
	l4.988-3.385L331.225,136.111L331.225,136.111z"/>
<path id="path2832" fill="#008080" d="M421.555,63.529l2.268-2.142l2.394-0.882h3.023l2.646,0.882l4.283,0.882l5.291,0.126
	l4.032-0.252l3.023-1.386c0,0,1.134-1.134,1.638-1.26s1.638-0.252,1.638-0.252l1.891,0.504l1.134,1.512l0.126,3.528l0.126,2.52
	l-0.882,1.764l-2.017,2.142l-1.89,0.756c0,0-1.26,0.378-1.89,0.378s-2.016,0.378-2.016,0.378l-1.638,1.386l-3.402,1.89l-2.268,0.756
	l-2.268,0.126l-1.89-0.126c0,0-1.89-0.756-2.394-1.386s-2.395-3.15-2.395-3.15l-2.142-1.638l-3.023-1.512l-2.394-2.016l-1.008-2.394
	V63.529L421.555,63.529z"/>
<path id="path2834" fill="#008080" d="M576.141,123.373h-2.016l-1.008-0.756v-1.764l0.504-1.26l0.756-0.63l1.386,0.252l0.756,1.386
	l0.252,1.764L576.141,123.373z"/>
<path id="path2836" fill="#008080" d="M580.425,128.791v-3.15l0.882-2.016l1.386-1.89l1.386-0.882l2.142-0.126l1.512,0.252
	l2.017,0.63l1.26,0.756l0.63,1.134l-0.378,1.008l-1.134,1.134l-0.756,1.386l-0.252,1.764l0.756,1.386l1.134,1.26l1.134,0.882
	l0.63,1.134l-0.126,2.016c0,0-0.126,1.386-0.63,1.512s-1.008,0.63-1.512,0.63s-3.023-0.126-3.023-0.126l-2.898-1.386l-2.394-1.764
	l-1.638-2.268l-0.252-2.268L580.425,128.791L580.425,128.791z"/>
<path id="path2838" fill="#008080" d="M646.947,195.158l1.426-2.138l2.762-1.247l1.781-1.069l2.049-0.802l1.515-0.534l1.604-0.268
	l1.247,0.268l0.891,0.712l-0.534,1.336l-1.247,0.713l-2.138,1.247l-1.96,0.624l-1.515,0.98l-1.96,1.158l-1.158,0.534l-1.426,0.178
	l-1.247-0.267l-0.534-0.713L646.947,195.158L646.947,195.158z"/>
<path id="path2840" fill="#008080" d="M803.473,790.078l-0.179-1.692l0.09-1.515l0.802-0.979h0.979l1.515,0.355l1.96,2.673
	l1.515,2.405l1.068,2.049l0.98,1.426l1.069,0.534l0.355,1.069l-0.979,0.98l-1.336,0.979l-0.624,0.713l-1.069,0.445
	c0,0-1.158,0.089-1.514-0.089c-0.356-0.179-0.98-0.535-0.98-0.98s0.268-1.96,0.268-1.96s-0.09-0.712-0.268-1.068
	s-0.802-1.693-0.802-1.693l-0.979-1.425l-0.98-1.069l-0.534-0.445L803.473,790.078L803.473,790.078z"/>
<path id="path2842" fill="#008080" d="M807.659,803.53l0.713-1.515l0.535-0.979l0.979-0.624h1.96l1.515-0.089l1.158,0.089
	l0.623,0.089l0.624,1.426l-0.356,1.069l-1.426,0.623l-0.891,0.445l-1.336,0.356h-2.049l-1.96-0.178L807.659,803.53L807.659,803.53z"
	/>
<path id="path2844" fill="#008080" d="M723.918,787.139l-0.268-1.782l0.356-2.227l0.179-2.673c0,0,0.623-0.713,0.713-1.158
	c0.089-0.445-0.09-0.891,0.178-1.336c0.268-0.446,1.426-1.158,1.426-1.158s0.712,0.089,1.068,0.089s1.426,0.891,1.426,0.891
	l0.356,2.049c0,0,0.178,0.713,0.178,1.426s0.089,2.405,0,2.851s-0.891,1.782-0.891,1.782l-1.158,1.247c0,0-0.534,0.445-1.069,0.534
	c-0.534,0.089-1.604,0-1.604,0L723.918,787.139L723.918,787.139z"/>
<path id="path2846" fill="#008080" d="M738.413,808.367l1.512-2.646c0,0,1.134-1.26,1.638-1.26s1.764,0,1.764,0l2.016,1.638
	l0.505,1.26l2.268,0.756l3.653,0.378l2.52,1.008l3.15,2.646l3.527,2.646l3.149,2.646l3.149,1.764l3.654,0.378
	c0,0,3.023,0.126,3.527-0.252s1.386-1.134,2.016-1.386s3.15-1.008,3.15-1.008l3.275-0.378l3.023-0.63l4.788-0.378l4.283-0.63
	l2.771-0.63l2.268-1.386l2.269-1.26h2.394l2.646,1.008l1.638,1.008l1.26,2.394l0.252,3.275l-0.126,3.402l-0.63,3.401l-1.26,4.031
	l-1.008,2.646l-0.252,3.653l0.126,4.157l0.252,2.521l-0.63,1.134l-2.394,0.63l-1.512,0.126l-2.017,1.638l-1.386,1.89l-1.26,1.89
	l-0.378,2.52l0.63,1.891l1.764,0.756l0.882,1.008v1.008l-0.126,1.512l-1.638,0.882l-0.504,1.638v2.142c0,0,0,1.261,0,2.017
	s-0.504,1.638-0.504,1.638l-0.252,0.63l-1.638,0.126l-1.764-0.126c0,0-0.63-1.764-0.504-2.268s-0.252-1.891-0.504-2.395
	s-0.63-1.008-1.26-1.008s-1.891,0-1.891,0l-1.386,0.378l-2.268,1.638l-1.512,1.135l-2.268,2.897l-2.016,1.764l-1.638,3.905
	l-1.009,2.017l-2.016,1.008l-2.394-0.126l-2.771-1.135l-2.016-1.638l-1.135-0.882h-1.008c0,0-0.882,0-1.386,0
	s-1.386,0.126-1.386,0.126l-0.882-0.252c0,0-1.008,0-1.386-0.63s-0.756-1.008-0.756-1.008l-1.512-0.882c0,0,0.126,0.126-1.134-0.756
	s-2.772-1.764-2.772-1.764s-1.134-0.756-1.26-1.26s-2.142-3.149-2.142-3.149l-2.016-3.906l-1.008-3.149l-0.252-3.149l0.126-2.898
	l-0.756-2.142l-1.512-1.512c0,0-1.638-0.63-1.891-1.26c-0.252-0.63-0.504-1.89-0.504-1.89l0.883-1.26c0,0,0.756-0.631,1.512-0.883
	s1.008-0.504,1.008-0.504s0.252-0.378,0.252-1.134s0-1.764,0-1.764l-1.008-2.268c0,0-0.252-1.26-0.378-1.764
	s-2.395-4.662-2.395-4.662l-2.646-2.016l-2.016-2.268l-1.134-1.386l-0.63-3.654l0.126-4.409l0.126-5.039L738.413,808.367
	L738.413,808.367z"/>
<path id="path2848" fill="#008080" d="M785.658,875.393l-1.26-1.134l-0.252-1.764l0.378-1.89l0.504-0.756l1.512,0.378l0.756,1.386
	v1.638l-0.252,1.26l-0.63,1.008L785.658,875.393L785.658,875.393z"/>
<path id="path2850" fill="#008080" d="M578.283,679.356l2.268-2.52l1.638-1.891l2.268-1.386l2.268-0.252l1.386-0.63h3.276
	l3.275-0.126l2.142,0.63c0,0,1.512,0.378,2.771,0.756c1.261,0.378,1.639,0.504,2.143,0.504s1.512,0,1.512,0l1.386,0.378l0.63,0.756
	l-0.378,1.765c0,0-0.63,1.512-1.134,1.764s-1.764,0.882-1.764,0.882l-1.386,1.134c0,0,0.63,0.63-0.378,0.882
	c-1.009,0.252-1.639,0.378-1.639,0.378l-1.386-0.756v-0.63l-1.638-0.126h-1.512l-1.134,1.134l-5.796-0.252l-5.291,0.126
	l-2.142-0.756l-1.638-0.63l-0.252-0.504L578.283,679.356L578.283,679.356z"/>
</svg>
